<svg width="37" height="39" viewBox="0 0 37 39" fill="none" xmlns="http://www.w3.org/2000/svg">
<g filter="url(#filter0_d_179_2246)">
<path d="M32.5 16.5C32.5 24.228 26.235 30.5 18.5 30.5C10.765 30.5 4.5 24.228 4.5 16.5C4.5 8.765 10.765 2.5 18.5 2.5C26.235 2.5 32.5 8.765 32.5 16.5Z" fill="#333333"/>
<path d="M25.0621 12.9574C24.9857 13.002 23.1671 13.9425 23.1671 16.0279C23.2528 18.4061 25.4621 19.2401 25.5 19.2401C25.4621 19.2847 25.1665 20.3763 24.2907 21.5205C23.5956 22.5062 22.8242 23.5 21.6528 23.5C20.5385 23.5 20.1385 22.8431 18.8528 22.8431C17.472 22.8431 17.0813 23.5 16.0242 23.5C14.8528 23.5 14.0242 22.453 13.2913 21.4766C12.3391 20.1986 11.5298 18.1931 11.5012 16.2675C11.482 15.2471 11.6919 14.244 12.2248 13.3921C12.977 12.2026 14.3198 11.3952 15.7863 11.3686C16.9099 11.3333 17.9099 12.0875 18.5956 12.0875C19.2528 12.0875 20.4814 11.3686 21.8714 11.3686C22.4714 11.3692 24.0714 11.5376 25.0621 12.9574ZM18.5006 11.1649C18.3006 10.233 18.8528 9.30119 19.3671 8.70677C20.0242 7.98792 21.0621 7.5 21.9571 7.5C22.0143 8.43185 21.6522 9.34575 21.005 10.0114C20.4242 10.7302 19.4242 11.2714 18.5006 11.1649Z" fill="white"/>
</g>
<defs>
<filter id="filter0_d_179_2246" x="-1.5" y="0.5" width="40" height="40" filterUnits="userSpaceOnUse" color-interpolation-filters="sRGB">
<feFlood flood-opacity="0" result="BackgroundImageFix"/>
<feColorMatrix in="SourceAlpha" type="matrix" values="0 0 0 0 0 0 0 0 0 0 0 0 0 0 0 0 0 0 127 0" result="hardAlpha"/>
<feOffset dy="4"/>
<feGaussianBlur stdDeviation="2"/>
<feComposite in2="hardAlpha" operator="out"/>
<feColorMatrix type="matrix" values="0 0 0 0 0 0 0 0 0 0 0 0 0 0 0 0 0 0 0.25 0"/>
<feBlend mode="normal" in2="BackgroundImageFix" result="effect1_dropShadow_179_2246"/>
<feBlend mode="normal" in="SourceGraphic" in2="effect1_dropShadow_179_2246" result="shape"/>
</filter>
</defs>
</svg>
